<svg id="visual" viewBox="0 0 2000 2000" width="2000" height="2000" xmlns="http://www.w3.org/2000/svg" xmlns:xlink="http://www.w3.org/1999/xlink" version="1.1"><path d="M0 41L105 41L105 141L211 141L211 141L316 141L316 41L421 41L421 41L526 41L526 81L632 81L632 61L737 61L737 121L842 121L842 81L947 81L947 81L1053 81L1053 201L1158 201L1158 141L1263 141L1263 121L1368 121L1368 181L1474 181L1474 81L1579 81L1579 121L1684 121L1684 101L1789 101L1789 81L1895 81L1895 61L2000 61L2000 41L2000 0L2000 0L1895 0L1895 0L1789 0L1789 0L1684 0L1684 0L1579 0L1579 0L1474 0L1474 0L1368 0L1368 0L1263 0L1263 0L1158 0L1158 0L1053 0L1053 0L947 0L947 0L842 0L842 0L737 0L737 0L632 0L632 0L526 0L526 0L421 0L421 0L316 0L316 0L211 0L211 0L105 0L105 0L0 0Z" fill="#ffffff"></path><path d="M0 301L105 301L105 341L211 341L211 221L316 221L316 301L421 301L421 121L526 121L526 201L632 201L632 121L737 121L737 401L842 401L842 181L947 181L947 381L1053 381L1053 341L1158 341L1158 301L1263 301L1263 241L1368 241L1368 401L1474 401L1474 301L1579 301L1579 281L1684 281L1684 181L1789 181L1789 301L1895 301L1895 241L2000 241L2000 201L2000 39L2000 59L1895 59L1895 79L1789 79L1789 99L1684 99L1684 119L1579 119L1579 79L1474 79L1474 179L1368 179L1368 119L1263 119L1263 139L1158 139L1158 199L1053 199L1053 79L947 79L947 79L842 79L842 119L737 119L737 59L632 59L632 79L526 79L526 39L421 39L421 39L316 39L316 139L211 139L211 139L105 139L105 39L0 39Z" fill="#e5f1f9"></path><path d="M0 641L105 641L105 741L211 741L211 761L316 761L316 1081L421 1081L421 781L526 781L526 481L632 481L632 781L737 781L737 1041L842 1041L842 741L947 741L947 941L1053 941L1053 621L1158 621L1158 841L1263 841L1263 841L1368 841L1368 1081L1474 1081L1474 621L1579 621L1579 901L1684 901L1684 441L1789 441L1789 741L1895 741L1895 881L2000 881L2000 901L2000 199L2000 239L1895 239L1895 299L1789 299L1789 179L1684 179L1684 279L1579 279L1579 299L1474 299L1474 399L1368 399L1368 239L1263 239L1263 299L1158 299L1158 339L1053 339L1053 379L947 379L947 179L842 179L842 399L737 399L737 119L632 119L632 199L526 199L526 119L421 119L421 299L316 299L316 219L211 219L211 339L105 339L105 299L0 299Z" fill="#cbe3f3"></path><path d="M0 821L105 821L105 921L211 921L211 961L316 961L316 1241L421 1241L421 901L526 901L526 641L632 641L632 961L737 961L737 1161L842 1161L842 901L947 901L947 1021L1053 1021L1053 801L1158 801L1158 1021L1263 1021L1263 941L1368 941L1368 1241L1474 1241L1474 781L1579 781L1579 1061L1684 1061L1684 661L1789 661L1789 821L1895 821L1895 1041L2000 1041L2000 1101L2000 899L2000 879L1895 879L1895 739L1789 739L1789 439L1684 439L1684 899L1579 899L1579 619L1474 619L1474 1079L1368 1079L1368 839L1263 839L1263 839L1158 839L1158 619L1053 619L1053 939L947 939L947 739L842 739L842 1039L737 1039L737 779L632 779L632 479L526 479L526 779L421 779L421 1079L316 1079L316 759L211 759L211 739L105 739L105 639L0 639Z" fill="#b0d5ed"></path><path d="M0 1181L105 1181L105 1181L211 1181L211 1261L316 1261L316 1341L421 1341L421 1261L526 1261L526 1181L632 1181L632 1381L737 1381L737 1281L842 1281L842 1141L947 1141L947 1321L1053 1321L1053 1161L1158 1161L1158 1341L1263 1341L1263 1201L1368 1201L1368 1381L1474 1381L1474 1041L1579 1041L1579 1361L1684 1361L1684 861L1789 861L1789 1261L1895 1261L1895 1401L2000 1401L2000 1561L2000 1099L2000 1039L1895 1039L1895 819L1789 819L1789 659L1684 659L1684 1059L1579 1059L1579 779L1474 779L1474 1239L1368 1239L1368 939L1263 939L1263 1019L1158 1019L1158 799L1053 799L1053 1019L947 1019L947 899L842 899L842 1159L737 1159L737 959L632 959L632 639L526 639L526 899L421 899L421 1239L316 1239L316 959L211 959L211 919L105 919L105 819L0 819Z" fill="#94c7e7"></path><path d="M0 1681L105 1681L105 1601L211 1601L211 1521L316 1521L316 1601L421 1601L421 1621L526 1621L526 1761L632 1761L632 1701L737 1701L737 1761L842 1761L842 1681L947 1681L947 1581L1053 1581L1053 1641L1158 1641L1158 1741L1263 1741L1263 1581L1368 1581L1368 1721L1474 1721L1474 1721L1579 1721L1579 1641L1684 1641L1684 1601L1789 1601L1789 1621L1895 1621L1895 1741L2000 1741L2000 1761L2000 1559L2000 1399L1895 1399L1895 1259L1789 1259L1789 859L1684 859L1684 1359L1579 1359L1579 1039L1474 1039L1474 1379L1368 1379L1368 1199L1263 1199L1263 1339L1158 1339L1158 1159L1053 1159L1053 1319L947 1319L947 1139L842 1139L842 1279L737 1279L737 1379L632 1379L632 1179L526 1179L526 1259L421 1259L421 1339L316 1339L316 1259L211 1259L211 1179L105 1179L105 1179L0 1179Z" fill="#75bae1"></path><path d="M0 1881L105 1881L105 1861L211 1861L211 1761L316 1761L316 1901L421 1901L421 1801L526 1801L526 1841L632 1841L632 1821L737 1821L737 1881L842 1881L842 1781L947 1781L947 1781L1053 1781L1053 1941L1158 1941L1158 1941L1263 1941L1263 1841L1368 1841L1368 1841L1474 1841L1474 1941L1579 1941L1579 1921L1684 1921L1684 1901L1789 1901L1789 1821L1895 1821L1895 1901L2000 1901L2000 1941L2000 1759L2000 1739L1895 1739L1895 1619L1789 1619L1789 1599L1684 1599L1684 1639L1579 1639L1579 1719L1474 1719L1474 1719L1368 1719L1368 1579L1263 1579L1263 1739L1158 1739L1158 1639L1053 1639L1053 1579L947 1579L947 1679L842 1679L842 1759L737 1759L737 1699L632 1699L632 1759L526 1759L526 1619L421 1619L421 1599L316 1599L316 1519L211 1519L211 1599L105 1599L105 1679L0 1679Z" fill="#50acda"></path><path d="M0 2001L105 2001L105 2001L211 2001L211 2001L316 2001L316 2001L421 2001L421 2001L526 2001L526 2001L632 2001L632 2001L737 2001L737 2001L842 2001L842 2001L947 2001L947 2001L1053 2001L1053 2001L1158 2001L1158 2001L1263 2001L1263 2001L1368 2001L1368 2001L1474 2001L1474 2001L1579 2001L1579 2001L1684 2001L1684 2001L1789 2001L1789 2001L1895 2001L1895 2001L2000 2001L2000 2001L2000 1939L2000 1899L1895 1899L1895 1819L1789 1819L1789 1899L1684 1899L1684 1919L1579 1919L1579 1939L1474 1939L1474 1839L1368 1839L1368 1839L1263 1839L1263 1939L1158 1939L1158 1939L1053 1939L1053 1779L947 1779L947 1779L842 1779L842 1879L737 1879L737 1819L632 1819L632 1839L526 1839L526 1799L421 1799L421 1899L316 1899L316 1759L211 1759L211 1859L105 1859L105 1879L0 1879Z" fill="#009fd4"></path></svg>