<svg id="visual" viewBox="0 0 2000 2000" width="2000" height="2000" xmlns="http://www.w3.org/2000/svg" xmlns:xlink="http://www.w3.org/1999/xlink" version="1.1"><path d="M0 101L105 101L105 141L211 141L211 301L316 301L316 341L421 341L421 61L526 61L526 121L632 121L632 221L737 221L737 281L842 281L842 441L947 441L947 261L1053 261L1053 381L1158 381L1158 481L1263 481L1263 261L1368 261L1368 161L1474 161L1474 81L1579 81L1579 561L1684 561L1684 101L1789 101L1789 361L1895 361L1895 161L2000 161L2000 381L2000 0L2000 0L1895 0L1895 0L1789 0L1789 0L1684 0L1684 0L1579 0L1579 0L1474 0L1474 0L1368 0L1368 0L1263 0L1263 0L1158 0L1158 0L1053 0L1053 0L947 0L947 0L842 0L842 0L737 0L737 0L632 0L632 0L526 0L526 0L421 0L421 0L316 0L316 0L211 0L211 0L105 0L105 0L0 0Z" fill="#7e84eb"></path><path d="M0 381L105 381L105 521L211 521L211 521L316 521L316 601L421 601L421 221L526 221L526 261L632 261L632 261L737 261L737 401L842 401L842 541L947 541L947 561L1053 561L1053 441L1158 441L1158 701L1263 701L1263 501L1368 501L1368 261L1474 261L1474 141L1579 141L1579 781L1684 781L1684 261L1789 261L1789 401L1895 401L1895 521L2000 521L2000 441L2000 379L2000 159L1895 159L1895 359L1789 359L1789 99L1684 99L1684 559L1579 559L1579 79L1474 79L1474 159L1368 159L1368 259L1263 259L1263 479L1158 479L1158 379L1053 379L1053 259L947 259L947 439L842 439L842 279L737 279L737 219L632 219L632 119L526 119L526 59L421 59L421 339L316 339L316 299L211 299L211 139L105 139L105 99L0 99Z" fill="#9873d6"></path><path d="M0 581L105 581L105 881L211 881L211 661L316 661L316 1221L421 1221L421 1141L526 1141L526 721L632 721L632 701L737 701L737 981L842 981L842 641L947 641L947 1261L1053 1261L1053 1381L1158 1381L1158 1361L1263 1361L1263 701L1368 701L1368 1101L1474 1101L1474 641L1579 641L1579 1161L1684 1161L1684 481L1789 481L1789 581L1895 581L1895 821L2000 821L2000 681L2000 439L2000 519L1895 519L1895 399L1789 399L1789 259L1684 259L1684 779L1579 779L1579 139L1474 139L1474 259L1368 259L1368 499L1263 499L1263 699L1158 699L1158 439L1053 439L1053 559L947 559L947 539L842 539L842 399L737 399L737 259L632 259L632 259L526 259L526 219L421 219L421 599L316 599L316 519L211 519L211 519L105 519L105 379L0 379Z" fill="#a962bd"></path><path d="M0 861L105 861L105 961L211 961L211 881L316 881L316 1261L421 1261L421 1361L526 1361L526 741L632 741L632 881L737 881L737 1221L842 1221L842 901L947 901L947 1501L1053 1501L1053 1441L1158 1441L1158 1441L1263 1441L1263 1001L1368 1001L1368 1161L1474 1161L1474 881L1579 881L1579 1181L1684 1181L1684 681L1789 681L1789 701L1895 701L1895 981L2000 981L2000 781L2000 679L2000 819L1895 819L1895 579L1789 579L1789 479L1684 479L1684 1159L1579 1159L1579 639L1474 639L1474 1099L1368 1099L1368 699L1263 699L1263 1359L1158 1359L1158 1379L1053 1379L1053 1259L947 1259L947 639L842 639L842 979L737 979L737 699L632 699L632 719L526 719L526 1139L421 1139L421 1219L316 1219L316 659L211 659L211 879L105 879L105 579L0 579Z" fill="#b352a2"></path><path d="M0 981L105 981L105 1101L211 1101L211 961L316 961L316 1341L421 1341L421 1381L526 1381L526 821L632 821L632 1121L737 1121L737 1261L842 1261L842 1081L947 1081L947 1681L1053 1681L1053 1561L1158 1561L1158 1481L1263 1481L1263 1061L1368 1061L1368 1341L1474 1341L1474 1001L1579 1001L1579 1201L1684 1201L1684 941L1789 941L1789 881L1895 881L1895 1161L2000 1161L2000 841L2000 779L2000 979L1895 979L1895 699L1789 699L1789 679L1684 679L1684 1179L1579 1179L1579 879L1474 879L1474 1159L1368 1159L1368 999L1263 999L1263 1439L1158 1439L1158 1439L1053 1439L1053 1499L947 1499L947 899L842 899L842 1219L737 1219L737 879L632 879L632 739L526 739L526 1359L421 1359L421 1259L316 1259L316 879L211 879L211 959L105 959L105 859L0 859Z" fill="#b74487"></path><path d="M0 1641L105 1641L105 1721L211 1721L211 1701L316 1701L316 1741L421 1741L421 1601L526 1601L526 1481L632 1481L632 1841L737 1841L737 1721L842 1721L842 1741L947 1741L947 1741L1053 1741L1053 1681L1158 1681L1158 1621L1263 1621L1263 1761L1368 1761L1368 1581L1474 1581L1474 1621L1579 1621L1579 1681L1684 1681L1684 1621L1789 1621L1789 1501L1895 1501L1895 1621L2000 1621L2000 1741L2000 839L2000 1159L1895 1159L1895 879L1789 879L1789 939L1684 939L1684 1199L1579 1199L1579 999L1474 999L1474 1339L1368 1339L1368 1059L1263 1059L1263 1479L1158 1479L1158 1559L1053 1559L1053 1679L947 1679L947 1079L842 1079L842 1259L737 1259L737 1119L632 1119L632 819L526 819L526 1379L421 1379L421 1339L316 1339L316 959L211 959L211 1099L105 1099L105 979L0 979Z" fill="#b5396c"></path><path d="M0 1701L105 1701L105 1761L211 1761L211 1821L316 1821L316 1901L421 1901L421 1721L526 1721L526 1541L632 1541L632 1881L737 1881L737 1761L842 1761L842 1841L947 1841L947 1901L1053 1901L1053 1781L1158 1781L1158 1781L1263 1781L1263 1801L1368 1801L1368 1741L1474 1741L1474 1681L1579 1681L1579 1821L1684 1821L1684 1721L1789 1721L1789 1721L1895 1721L1895 1721L2000 1721L2000 1801L2000 1739L2000 1619L1895 1619L1895 1499L1789 1499L1789 1619L1684 1619L1684 1679L1579 1679L1579 1619L1474 1619L1474 1579L1368 1579L1368 1759L1263 1759L1263 1619L1158 1619L1158 1679L1053 1679L1053 1739L947 1739L947 1739L842 1739L842 1719L737 1719L737 1839L632 1839L632 1479L526 1479L526 1599L421 1599L421 1739L316 1739L316 1699L211 1699L211 1719L105 1719L105 1639L0 1639Z" fill="#ae3251"></path><path d="M0 1861L105 1861L105 1821L211 1821L211 1981L316 1981L316 1981L421 1981L421 1981L526 1981L526 1881L632 1881L632 1921L737 1921L737 1801L842 1801L842 1941L947 1941L947 1981L1053 1981L1053 1981L1158 1981L1158 1941L1263 1941L1263 1941L1368 1941L1368 1881L1474 1881L1474 1961L1579 1961L1579 1981L1684 1981L1684 1981L1789 1981L1789 1981L1895 1981L1895 1961L2000 1961L2000 1901L2000 1799L2000 1719L1895 1719L1895 1719L1789 1719L1789 1719L1684 1719L1684 1819L1579 1819L1579 1679L1474 1679L1474 1739L1368 1739L1368 1799L1263 1799L1263 1779L1158 1779L1158 1779L1053 1779L1053 1899L947 1899L947 1839L842 1839L842 1759L737 1759L737 1879L632 1879L632 1539L526 1539L526 1719L421 1719L421 1899L316 1899L316 1819L211 1819L211 1759L105 1759L105 1699L0 1699Z" fill="#a22f39"></path><path d="M0 2001L105 2001L105 2001L211 2001L211 2001L316 2001L316 2001L421 2001L421 2001L526 2001L526 2001L632 2001L632 2001L737 2001L737 2001L842 2001L842 2001L947 2001L947 2001L1053 2001L1053 2001L1158 2001L1158 2001L1263 2001L1263 2001L1368 2001L1368 2001L1474 2001L1474 2001L1579 2001L1579 2001L1684 2001L1684 2001L1789 2001L1789 2001L1895 2001L1895 2001L2000 2001L2000 2001L2000 1899L2000 1959L1895 1959L1895 1979L1789 1979L1789 1979L1684 1979L1684 1979L1579 1979L1579 1959L1474 1959L1474 1879L1368 1879L1368 1939L1263 1939L1263 1939L1158 1939L1158 1979L1053 1979L1053 1979L947 1979L947 1939L842 1939L842 1799L737 1799L737 1919L632 1919L632 1879L526 1879L526 1979L421 1979L421 1979L316 1979L316 1979L211 1979L211 1819L105 1819L105 1859L0 1859Z" fill="#933022"></path></svg>