<svg id="visual" viewBox="0 0 2000 2000" width="2000" height="2000" xmlns="http://www.w3.org/2000/svg" xmlns:xlink="http://www.w3.org/1999/xlink" version="1.1"><path d="M0 161L118 161L118 421L235 421L235 241L353 241L353 221L471 221L471 381L588 381L588 261L706 261L706 441L824 441L824 201L941 201L941 121L1059 121L1059 341L1176 341L1176 501L1294 501L1294 241L1412 241L1412 421L1529 421L1529 201L1647 201L1647 341L1765 341L1765 441L1882 441L1882 401L2000 401L2000 301L2000 0L2000 0L1882 0L1882 0L1765 0L1765 0L1647 0L1647 0L1529 0L1529 0L1412 0L1412 0L1294 0L1294 0L1176 0L1176 0L1059 0L1059 0L941 0L941 0L824 0L824 0L706 0L706 0L588 0L588 0L471 0L471 0L353 0L353 0L235 0L235 0L118 0L118 0L0 0Z" fill="#ffcdff"></path><path d="M0 321L118 321L118 561L235 561L235 401L353 401L353 441L471 441L471 661L588 661L588 361L706 361L706 741L824 741L824 441L941 441L941 381L1059 381L1059 581L1176 581L1176 661L1294 661L1294 421L1412 421L1412 601L1529 601L1529 401L1647 401L1647 481L1765 481L1765 661L1882 661L1882 681L2000 681L2000 601L2000 299L2000 399L1882 399L1882 439L1765 439L1765 339L1647 339L1647 199L1529 199L1529 419L1412 419L1412 239L1294 239L1294 499L1176 499L1176 339L1059 339L1059 119L941 119L941 199L824 199L824 439L706 439L706 259L588 259L588 379L471 379L471 219L353 219L353 239L235 239L235 419L118 419L118 159L0 159Z" fill="#febef9"></path><path d="M0 521L118 521L118 841L235 841L235 701L353 701L353 681L471 681L471 881L588 881L588 481L706 481L706 901L824 901L824 721L941 721L941 621L1059 621L1059 761L1176 761L1176 841L1294 841L1294 541L1412 541L1412 841L1529 841L1529 541L1647 541L1647 761L1765 761L1765 881L1882 881L1882 781L2000 781L2000 921L2000 599L2000 679L1882 679L1882 659L1765 659L1765 479L1647 479L1647 399L1529 399L1529 599L1412 599L1412 419L1294 419L1294 659L1176 659L1176 579L1059 579L1059 379L941 379L941 439L824 439L824 739L706 739L706 359L588 359L588 659L471 659L471 439L353 439L353 399L235 399L235 559L118 559L118 319L0 319Z" fill="#feaef2"></path><path d="M0 1381L118 1381L118 1041L235 1041L235 1381L353 1381L353 1181L471 1181L471 1201L588 1201L588 901L706 901L706 1201L824 1201L824 981L941 981L941 1081L1059 1081L1059 1081L1176 1081L1176 1401L1294 1401L1294 1101L1412 1101L1412 1201L1529 1201L1529 961L1647 961L1647 1261L1765 1261L1765 1241L1882 1241L1882 1381L2000 1381L2000 1121L2000 919L2000 779L1882 779L1882 879L1765 879L1765 759L1647 759L1647 539L1529 539L1529 839L1412 839L1412 539L1294 539L1294 839L1176 839L1176 759L1059 759L1059 619L941 619L941 719L824 719L824 899L706 899L706 479L588 479L588 879L471 879L471 679L353 679L353 699L235 699L235 839L118 839L118 519L0 519Z" fill="#fe9eea"></path><path d="M0 1541L118 1541L118 1241L235 1241L235 1481L353 1481L353 1401L471 1401L471 1341L588 1341L588 981L706 981L706 1381L824 1381L824 1161L941 1161L941 1321L1059 1321L1059 1241L1176 1241L1176 1561L1294 1561L1294 1281L1412 1281L1412 1281L1529 1281L1529 1101L1647 1101L1647 1501L1765 1501L1765 1321L1882 1321L1882 1541L2000 1541L2000 1261L2000 1119L2000 1379L1882 1379L1882 1239L1765 1239L1765 1259L1647 1259L1647 959L1529 959L1529 1199L1412 1199L1412 1099L1294 1099L1294 1399L1176 1399L1176 1079L1059 1079L1059 1079L941 1079L941 979L824 979L824 1199L706 1199L706 899L588 899L588 1199L471 1199L471 1179L353 1179L353 1379L235 1379L235 1039L118 1039L118 1379L0 1379Z" fill="#fe8de1"></path><path d="M0 1901L118 1901L118 1901L235 1901L235 1861L353 1861L353 1881L471 1881L471 1901L588 1901L588 1781L706 1781L706 1901L824 1901L824 1881L941 1881L941 1801L1059 1801L1059 1841L1176 1841L1176 1901L1294 1901L1294 1821L1412 1821L1412 1881L1529 1881L1529 1841L1647 1841L1647 1821L1765 1821L1765 1801L1882 1801L1882 1781L2000 1781L2000 1881L2000 1259L2000 1539L1882 1539L1882 1319L1765 1319L1765 1499L1647 1499L1647 1099L1529 1099L1529 1279L1412 1279L1412 1279L1294 1279L1294 1559L1176 1559L1176 1239L1059 1239L1059 1319L941 1319L941 1159L824 1159L824 1379L706 1379L706 979L588 979L588 1339L471 1339L471 1399L353 1399L353 1479L235 1479L235 1239L118 1239L118 1539L0 1539Z" fill="#ff7ad7"></path><path d="M0 2001L118 2001L118 2001L235 2001L235 2001L353 2001L353 2001L471 2001L471 2001L588 2001L588 2001L706 2001L706 2001L824 2001L824 2001L941 2001L941 2001L1059 2001L1059 2001L1176 2001L1176 2001L1294 2001L1294 2001L1412 2001L1412 2001L1529 2001L1529 2001L1647 2001L1647 2001L1765 2001L1765 2001L1882 2001L1882 2001L2000 2001L2000 2001L2000 1879L2000 1779L1882 1779L1882 1799L1765 1799L1765 1819L1647 1819L1647 1839L1529 1839L1529 1879L1412 1879L1412 1819L1294 1819L1294 1899L1176 1899L1176 1839L1059 1839L1059 1799L941 1799L941 1879L824 1879L824 1899L706 1899L706 1779L588 1779L588 1899L471 1899L471 1879L353 1879L353 1859L235 1859L235 1899L118 1899L118 1899L0 1899Z" fill="#ff66cc"></path></svg>