<svg id="visual" viewBox="0 0 2000 2000" width="2000" height="2000" xmlns="http://www.w3.org/2000/svg" xmlns:xlink="http://www.w3.org/1999/xlink" version="1.1"><path d="M0 101L105 101L105 141L211 141L211 201L316 201L316 61L421 61L421 81L526 81L526 121L632 121L632 61L737 61L737 181L842 181L842 61L947 61L947 41L1053 41L1053 121L1158 121L1158 41L1263 41L1263 101L1368 101L1368 101L1474 101L1474 161L1579 161L1579 141L1684 141L1684 141L1789 141L1789 101L1895 101L1895 41L2000 41L2000 181L2000 0L2000 0L1895 0L1895 0L1789 0L1789 0L1684 0L1684 0L1579 0L1579 0L1474 0L1474 0L1368 0L1368 0L1263 0L1263 0L1158 0L1158 0L1053 0L1053 0L947 0L947 0L842 0L842 0L737 0L737 0L632 0L632 0L526 0L526 0L421 0L421 0L316 0L316 0L211 0L211 0L105 0L105 0L0 0Z" fill="#fbff82"></path><path d="M0 201L105 201L105 221L211 221L211 261L316 261L316 121L421 121L421 161L526 161L526 241L632 241L632 201L737 201L737 261L842 261L842 141L947 141L947 121L1053 121L1053 241L1158 241L1158 161L1263 161L1263 241L1368 241L1368 221L1474 221L1474 221L1579 221L1579 261L1684 261L1684 181L1789 181L1789 201L1895 201L1895 161L2000 161L2000 321L2000 179L2000 39L1895 39L1895 99L1789 99L1789 139L1684 139L1684 139L1579 139L1579 159L1474 159L1474 99L1368 99L1368 99L1263 99L1263 39L1158 39L1158 119L1053 119L1053 39L947 39L947 59L842 59L842 179L737 179L737 59L632 59L632 119L526 119L526 79L421 79L421 59L316 59L316 199L211 199L211 139L105 139L105 99L0 99Z" fill="#ffdc6b"></path><path d="M0 501L105 501L105 301L211 301L211 321L316 321L316 321L421 321L421 441L526 441L526 341L632 341L632 421L737 421L737 501L842 501L842 301L947 301L947 341L1053 341L1053 361L1158 361L1158 361L1263 361L1263 481L1368 481L1368 481L1474 481L1474 301L1579 301L1579 381L1684 381L1684 281L1789 281L1789 501L1895 501L1895 421L2000 421L2000 481L2000 319L2000 159L1895 159L1895 199L1789 199L1789 179L1684 179L1684 259L1579 259L1579 219L1474 219L1474 219L1368 219L1368 239L1263 239L1263 159L1158 159L1158 239L1053 239L1053 119L947 119L947 139L842 139L842 259L737 259L737 199L632 199L632 239L526 239L526 159L421 159L421 119L316 119L316 259L211 259L211 219L105 219L105 199L0 199Z" fill="#ffb95f"></path><path d="M0 741L105 741L105 601L211 601L211 901L316 901L316 941L421 941L421 601L526 601L526 1021L632 1021L632 1041L737 1041L737 1061L842 1061L842 861L947 861L947 801L1053 801L1053 921L1158 921L1158 641L1263 641L1263 1061L1368 1061L1368 861L1474 861L1474 781L1579 781L1579 861L1684 861L1684 861L1789 861L1789 921L1895 921L1895 761L2000 761L2000 661L2000 479L2000 419L1895 419L1895 499L1789 499L1789 279L1684 279L1684 379L1579 379L1579 299L1474 299L1474 479L1368 479L1368 479L1263 479L1263 359L1158 359L1158 359L1053 359L1053 339L947 339L947 299L842 299L842 499L737 499L737 419L632 419L632 339L526 339L526 439L421 439L421 319L316 319L316 319L211 319L211 299L105 299L105 499L0 499Z" fill="#f6975c"></path><path d="M0 841L105 841L105 681L211 681L211 961L316 961L316 981L421 981L421 761L526 761L526 1181L632 1181L632 1161L737 1161L737 1201L842 1201L842 981L947 981L947 901L1053 901L1053 1041L1158 1041L1158 741L1263 741L1263 1221L1368 1221L1368 1001L1474 1001L1474 881L1579 881L1579 1001L1684 1001L1684 1001L1789 1001L1789 961L1895 961L1895 821L2000 821L2000 721L2000 659L2000 759L1895 759L1895 919L1789 919L1789 859L1684 859L1684 859L1579 859L1579 779L1474 779L1474 859L1368 859L1368 1059L1263 1059L1263 639L1158 639L1158 919L1053 919L1053 799L947 799L947 859L842 859L842 1059L737 1059L737 1039L632 1039L632 1019L526 1019L526 599L421 599L421 939L316 939L316 899L211 899L211 599L105 599L105 739L0 739Z" fill="#e6785e"></path><path d="M0 921L105 921L105 881L211 881L211 1161L316 1161L316 1101L421 1101L421 901L526 901L526 1341L632 1341L632 1241L737 1241L737 1321L842 1321L842 1181L947 1181L947 1021L1053 1021L1053 1141L1158 1141L1158 801L1263 801L1263 1461L1368 1461L1368 1201L1474 1201L1474 1001L1579 1001L1579 1061L1684 1061L1684 1121L1789 1121L1789 1121L1895 1121L1895 1041L2000 1041L2000 901L2000 719L2000 819L1895 819L1895 959L1789 959L1789 999L1684 999L1684 999L1579 999L1579 879L1474 879L1474 999L1368 999L1368 1219L1263 1219L1263 739L1158 739L1158 1039L1053 1039L1053 899L947 899L947 979L842 979L842 1199L737 1199L737 1159L632 1159L632 1179L526 1179L526 759L421 759L421 979L316 979L316 959L211 959L211 679L105 679L105 839L0 839Z" fill="#d05b62"></path><path d="M0 1021L105 1021L105 921L211 921L211 1321L316 1321L316 1201L421 1201L421 1021L526 1021L526 1481L632 1481L632 1321L737 1321L737 1461L842 1461L842 1321L947 1321L947 1141L1053 1141L1053 1261L1158 1261L1158 901L1263 901L1263 1621L1368 1621L1368 1321L1474 1321L1474 1141L1579 1141L1579 1221L1684 1221L1684 1201L1789 1201L1789 1221L1895 1221L1895 1161L2000 1161L2000 1001L2000 899L2000 1039L1895 1039L1895 1119L1789 1119L1789 1119L1684 1119L1684 1059L1579 1059L1579 999L1474 999L1474 1199L1368 1199L1368 1459L1263 1459L1263 799L1158 799L1158 1139L1053 1139L1053 1019L947 1019L947 1179L842 1179L842 1319L737 1319L737 1239L632 1239L632 1339L526 1339L526 899L421 899L421 1099L316 1099L316 1159L211 1159L211 879L105 879L105 919L0 919Z" fill="#b34465"></path><path d="M0 1121L105 1121L105 1321L211 1321L211 1621L316 1621L316 1441L421 1441L421 1341L526 1341L526 1721L632 1721L632 1421L737 1421L737 1681L842 1681L842 1741L947 1741L947 1321L1053 1321L1053 1601L1158 1601L1158 1361L1263 1361L1263 1701L1368 1701L1368 1521L1474 1521L1474 1261L1579 1261L1579 1321L1684 1321L1684 1381L1789 1381L1789 1521L1895 1521L1895 1341L2000 1341L2000 1361L2000 999L2000 1159L1895 1159L1895 1219L1789 1219L1789 1199L1684 1199L1684 1219L1579 1219L1579 1139L1474 1139L1474 1319L1368 1319L1368 1619L1263 1619L1263 899L1158 899L1158 1259L1053 1259L1053 1139L947 1139L947 1319L842 1319L842 1459L737 1459L737 1319L632 1319L632 1479L526 1479L526 1019L421 1019L421 1199L316 1199L316 1319L211 1319L211 919L105 919L105 1019L0 1019Z" fill="#913265"></path><path d="M0 1341L105 1341L105 1561L211 1561L211 1781L316 1781L316 1581L421 1581L421 1561L526 1561L526 1841L632 1841L632 1581L737 1581L737 1861L842 1861L842 1841L947 1841L947 1541L1053 1541L1053 1721L1158 1721L1158 1501L1263 1501L1263 1741L1368 1741L1368 1701L1474 1701L1474 1461L1579 1461L1579 1501L1684 1501L1684 1581L1789 1581L1789 1761L1895 1761L1895 1401L2000 1401L2000 1421L2000 1359L2000 1339L1895 1339L1895 1519L1789 1519L1789 1379L1684 1379L1684 1319L1579 1319L1579 1259L1474 1259L1474 1519L1368 1519L1368 1699L1263 1699L1263 1359L1158 1359L1158 1599L1053 1599L1053 1319L947 1319L947 1739L842 1739L842 1679L737 1679L737 1419L632 1419L632 1719L526 1719L526 1339L421 1339L421 1439L316 1439L316 1619L211 1619L211 1319L105 1319L105 1119L0 1119Z" fill="#6b2562"></path><path d="M0 2001L105 2001L105 2001L211 2001L211 2001L316 2001L316 2001L421 2001L421 2001L526 2001L526 2001L632 2001L632 2001L737 2001L737 2001L842 2001L842 2001L947 2001L947 2001L1053 2001L1053 2001L1158 2001L1158 2001L1263 2001L1263 2001L1368 2001L1368 2001L1474 2001L1474 2001L1579 2001L1579 2001L1684 2001L1684 2001L1789 2001L1789 2001L1895 2001L1895 2001L2000 2001L2000 2001L2000 1419L2000 1399L1895 1399L1895 1759L1789 1759L1789 1579L1684 1579L1684 1499L1579 1499L1579 1459L1474 1459L1474 1699L1368 1699L1368 1739L1263 1739L1263 1499L1158 1499L1158 1719L1053 1719L1053 1539L947 1539L947 1839L842 1839L842 1859L737 1859L737 1579L632 1579L632 1839L526 1839L526 1559L421 1559L421 1579L316 1579L316 1779L211 1779L211 1559L105 1559L105 1339L0 1339Z" fill="#421d5a"></path></svg>