<svg id="visual" viewBox="0 0 900 600" width="900" height="600" xmlns="http://www.w3.org/2000/svg" xmlns:xlink="http://www.w3.org/1999/xlink" version="1.1"><path d="M0 37L56 37L56 19L113 19L113 25L169 25L169 25L225 25L225 7L281 7L281 7L338 7L338 19L394 19L394 31L450 31L450 13L506 13L506 19L563 19L563 31L619 31L619 37L675 37L675 37L731 37L731 37L788 37L788 19L844 19L844 25L900 25L900 37L900 0L900 0L844 0L844 0L788 0L788 0L731 0L731 0L675 0L675 0L619 0L619 0L563 0L563 0L506 0L506 0L450 0L450 0L394 0L394 0L338 0L338 0L281 0L281 0L225 0L225 0L169 0L169 0L113 0L113 0L56 0L56 0L0 0Z" fill="#fff4c8"></path><path d="M0 49L56 49L56 25L113 25L113 67L169 67L169 43L225 43L225 13L281 13L281 19L338 19L338 61L394 61L394 61L450 61L450 19L506 19L506 25L563 25L563 49L619 49L619 67L675 67L675 43L731 43L731 61L788 61L788 37L844 37L844 37L900 37L900 73L900 35L900 23L844 23L844 17L788 17L788 35L731 35L731 35L675 35L675 35L619 35L619 29L563 29L563 17L506 17L506 11L450 11L450 29L394 29L394 17L338 17L338 5L281 5L281 5L225 5L225 23L169 23L169 23L113 23L113 17L56 17L56 35L0 35Z" fill="#ffe4b9"></path><path d="M0 115L56 115L56 103L113 103L113 133L169 133L169 67L225 67L225 55L281 55L281 43L338 43L338 97L394 97L394 133L450 133L450 103L506 103L506 67L563 67L563 133L619 133L619 151L675 151L675 73L731 73L731 79L788 79L788 79L844 79L844 133L900 133L900 133L900 71L900 35L844 35L844 35L788 35L788 59L731 59L731 41L675 41L675 65L619 65L619 47L563 47L563 23L506 23L506 17L450 17L450 59L394 59L394 59L338 59L338 17L281 17L281 11L225 11L225 41L169 41L169 65L113 65L113 23L56 23L56 47L0 47Z" fill="#fed3ad"></path><path d="M0 193L56 193L56 199L113 199L113 175L169 175L169 97L225 97L225 133L281 133L281 163L338 163L338 163L394 163L394 235L450 235L450 211L506 211L506 91L563 91L563 199L619 199L619 193L675 193L675 163L731 163L731 115L788 115L788 205L844 205L844 247L900 247L900 199L900 131L900 131L844 131L844 77L788 77L788 77L731 77L731 71L675 71L675 149L619 149L619 131L563 131L563 65L506 65L506 101L450 101L450 131L394 131L394 95L338 95L338 41L281 41L281 53L225 53L225 65L169 65L169 131L113 131L113 101L56 101L56 113L0 113Z" fill="#fcc2a5"></path><path d="M0 241L56 241L56 229L113 229L113 211L169 211L169 103L225 103L225 151L281 151L281 217L338 217L338 187L394 187L394 271L450 271L450 265L506 265L506 133L563 133L563 229L619 229L619 211L675 211L675 205L731 205L731 133L788 133L788 229L844 229L844 259L900 259L900 241L900 197L900 245L844 245L844 203L788 203L788 113L731 113L731 161L675 161L675 191L619 191L619 197L563 197L563 89L506 89L506 209L450 209L450 233L394 233L394 161L338 161L338 161L281 161L281 131L225 131L225 95L169 95L169 173L113 173L113 197L56 197L56 191L0 191Z" fill="#f8b1a1"></path><path d="M0 253L56 253L56 259L113 259L113 223L169 223L169 109L225 109L225 157L281 157L281 253L338 253L338 235L394 235L394 295L450 295L450 283L506 283L506 181L563 181L563 253L619 253L619 247L675 247L675 259L731 259L731 139L788 139L788 253L844 253L844 283L900 283L900 277L900 239L900 257L844 257L844 227L788 227L788 131L731 131L731 203L675 203L675 209L619 209L619 227L563 227L563 131L506 131L506 263L450 263L450 269L394 269L394 185L338 185L338 215L281 215L281 149L225 149L225 101L169 101L169 209L113 209L113 227L56 227L56 239L0 239Z" fill="#f1a1a0"></path><path d="M0 391L56 391L56 325L113 325L113 259L169 259L169 409L225 409L225 331L281 331L281 313L338 313L338 331L394 331L394 409L450 409L450 361L506 361L506 373L563 373L563 379L619 379L619 349L675 349L675 445L731 445L731 337L788 337L788 409L844 409L844 385L900 385L900 331L900 275L900 281L844 281L844 251L788 251L788 137L731 137L731 257L675 257L675 245L619 245L619 251L563 251L563 179L506 179L506 281L450 281L450 293L394 293L394 233L338 233L338 251L281 251L281 155L225 155L225 107L169 107L169 221L113 221L113 257L56 257L56 251L0 251Z" fill="#e693a2"></path><path d="M0 445L56 445L56 379L113 379L113 331L169 331L169 433L225 433L225 409L281 409L281 349L338 349L338 361L394 361L394 451L450 451L450 421L506 421L506 397L563 397L563 409L619 409L619 391L675 391L675 469L731 469L731 373L788 373L788 445L844 445L844 403L900 403L900 367L900 329L900 383L844 383L844 407L788 407L788 335L731 335L731 443L675 443L675 347L619 347L619 377L563 377L563 371L506 371L506 359L450 359L450 407L394 407L394 329L338 329L338 311L281 311L281 329L225 329L225 407L169 407L169 257L113 257L113 323L56 323L56 389L0 389Z" fill="#d787a7"></path><path d="M0 475L56 475L56 403L113 403L113 361L169 361L169 463L225 463L225 475L281 475L281 409L338 409L338 397L394 397L394 481L450 481L450 469L506 469L506 427L563 427L563 475L619 475L619 403L675 403L675 493L731 493L731 397L788 397L788 505L844 505L844 451L900 451L900 427L900 365L900 401L844 401L844 443L788 443L788 371L731 371L731 467L675 467L675 389L619 389L619 407L563 407L563 395L506 395L506 419L450 419L450 449L394 449L394 359L338 359L338 347L281 347L281 407L225 407L225 431L169 431L169 329L113 329L113 377L56 377L56 443L0 443Z" fill="#c47cac"></path><path d="M0 523L56 523L56 463L113 463L113 409L169 409L169 493L225 493L225 493L281 493L281 469L338 469L338 415L394 415L394 499L450 499L450 487L506 487L506 451L563 451L563 487L619 487L619 433L675 433L675 541L731 541L731 433L788 433L788 541L844 541L844 499L900 499L900 445L900 425L900 449L844 449L844 503L788 503L788 395L731 395L731 491L675 491L675 401L619 401L619 473L563 473L563 425L506 425L506 467L450 467L450 479L394 479L394 395L338 395L338 407L281 407L281 473L225 473L225 461L169 461L169 359L113 359L113 401L56 401L56 473L0 473Z" fill="#ac75b0"></path><path d="M0 571L56 571L56 583L113 583L113 571L169 571L169 565L225 565L225 577L281 577L281 589L338 589L338 565L394 565L394 577L450 577L450 589L506 589L506 565L563 565L563 571L619 571L619 571L675 571L675 589L731 589L731 595L788 595L788 589L844 589L844 571L900 571L900 565L900 443L900 497L844 497L844 539L788 539L788 431L731 431L731 539L675 539L675 431L619 431L619 485L563 485L563 449L506 449L506 485L450 485L450 497L394 497L394 413L338 413L338 467L281 467L281 491L225 491L225 491L169 491L169 407L113 407L113 461L56 461L56 521L0 521Z" fill="#8d6fb3"></path><path d="M0 601L56 601L56 601L113 601L113 601L169 601L169 601L225 601L225 601L281 601L281 601L338 601L338 601L394 601L394 601L450 601L450 601L506 601L506 601L563 601L563 601L619 601L619 601L675 601L675 601L731 601L731 601L788 601L788 601L844 601L844 601L900 601L900 601L900 563L900 569L844 569L844 587L788 587L788 593L731 593L731 587L675 587L675 569L619 569L619 569L563 569L563 563L506 563L506 587L450 587L450 575L394 575L394 563L338 563L338 587L281 587L281 575L225 575L225 563L169 563L169 569L113 569L113 581L56 581L56 569L0 569Z" fill="#686bb3"></path></svg>