<svg id="visual" viewBox="0 0 2000 2000" width="2000" height="2000" xmlns="http://www.w3.org/2000/svg" xmlns:xlink="http://www.w3.org/1999/xlink" version="1.1">
<path d="M0 81L125 81L125 61L250 61L250 161L375 161L375 61L500 61L500 21L625 21L625 81L750 81L750 61L875 61L875 121L1000 121L1000 181L1125 181L1125 161L1250 161L1250 161L1375 161L1375 201L1500 201L1500 41L1625 41L1625 41L1750 41L1750 141L1875 141L1875 161L2000 161L2000 201L2000 0L2000 0L1875 0L1875 0L1750 0L1750 0L1625 0L1625 0L1500 0L1500 0L1375 0L1375 0L1250 0L1250 0L1125 0L1125 0L1000 0L1000 0L875 0L875 0L750 0L750 0L625 0L625 0L500 0L500 0L375 0L375 0L250 0L250 0L125 0L125 0L0 0Z" fill="#b8d664">
</path>
<path d="M0 241L125 241L125 121L250 121L250 301L375 301L375 141L500 141L500 201L625 201L625 101L750 101L750 81L875 81L875 221L1000 221L1000 321L1125 321L1125 241L1250 241L1250 221L1375 221L1375 241L1500 241L1500 141L1625 141L1625 181L1750 181L1750 301L1875 301L1875 221L2000 221L2000 221L2000 199L2000 159L1875 159L1875 139L1750 139L1750 39L1625 39L1625 39L1500 39L1500 199L1375 199L1375 159L1250 159L1250 159L1125 159L1125 179L1000 179L1000 119L875 119L875 59L750 59L750 79L625 79L625 19L500 19L500 59L375 59L375 159L250 159L250 59L125 59L125 79L0 79Z" fill="#afcd5c">
</path>
<path d="M0 401L125 401L125 281L250 281L250 461L375 461L375 221L500 221L500 261L625 261L625 241L750 241L750 281L875 281L875 281L1000 281L1000 501L1125 501L1125 281L1250 281L1250 381L1375 381L1375 381L1500 381L1500 261L1625 261L1625 301L1750 301L1750 481L1875 481L1875 261L2000 261L2000 381L2000 219L2000 219L1875 219L1875 299L1750 299L1750 179L1625 179L1625 139L1500 139L1500 239L1375 239L1375 219L1250 219L1250 239L1125 239L1125 319L1000 319L1000 219L875 219L875 79L750 79L750 99L625 99L625 199L500 199L500 139L375 139L375 299L250 299L250 119L125 119L125 239L0 239Z" fill="#a7c554">
</path>
<path d="M0 441L125 441L125 381L250 381L250 541L375 541L375 321L500 321L500 341L625 341L625 301L750 301L750 361L875 361L875 361L1000 361L1000 621L1125 621L1125 341L1250 341L1250 401L1375 401L1375 441L1500 441L1500 361L1625 361L1625 321L1750 321L1750 541L1875 541L1875 361L2000 361L2000 401L2000 379L2000 259L1875 259L1875 479L1750 479L1750 299L1625 299L1625 259L1500 259L1500 379L1375 379L1375 379L1250 379L1250 279L1125 279L1125 499L1000 499L1000 279L875 279L875 279L750 279L750 239L625 239L625 259L500 259L500 219L375 219L375 459L250 459L250 279L125 279L125 399L0 399Z" fill="#9ebd4c">
</path>
<path d="M0 561L125 561L125 461L250 461L250 641L375 641L375 461L500 461L500 421L625 421L625 341L750 341L750 441L875 441L875 441L1000 441L1000 741L1125 741L1125 421L1250 421L1250 481L1375 481L1375 461L1500 461L1500 421L1625 421L1625 401L1750 401L1750 601L1875 601L1875 441L2000 441L2000 461L2000 399L2000 359L1875 359L1875 539L1750 539L1750 319L1625 319L1625 359L1500 359L1500 439L1375 439L1375 399L1250 399L1250 339L1125 339L1125 619L1000 619L1000 359L875 359L875 359L750 359L750 299L625 299L625 339L500 339L500 319L375 319L375 539L250 539L250 379L125 379L125 439L0 439Z" fill="#96b444"></path><path d="M0 781L125 781L125 521L250 521L250 741L375 741L375 681L500 681L500 661L625 661L625 561L750 561L750 701L875 701L875 601L1000 601L1000 841L1125 841L1125 681L1250 681L1250 541L1375 541L1375 601L1500 601L1500 661L1625 661L1625 481L1750 481L1750 661L1875 661L1875 541L2000 541L2000 661L2000 459L2000 439L1875 439L1875 599L1750 599L1750 399L1625 399L1625 419L1500 419L1500 459L1375 459L1375 479L1250 479L1250 419L1125 419L1125 739L1000 739L1000 439L875 439L875 439L750 439L750 339L625 339L625 419L500 419L500 459L375 459L375 639L250 639L250 459L125 459L125 559L0 559Z" fill="#8dac3c"></path><path d="M0 901L125 901L125 541L250 541L250 761L375 761L375 761L500 761L500 741L625 741L625 701L750 701L750 761L875 761L875 701L1000 701L1000 921L1125 921L1125 781L1250 781L1250 621L1375 621L1375 781L1500 781L1500 781L1625 781L1625 581L1750 581L1750 781L1875 781L1875 581L2000 581L2000 781L2000 659L2000 539L1875 539L1875 659L1750 659L1750 479L1625 479L1625 659L1500 659L1500 599L1375 599L1375 539L1250 539L1250 679L1125 679L1125 839L1000 839L1000 599L875 599L875 699L750 699L750 559L625 559L625 659L500 659L500 679L375 679L375 739L250 739L250 519L125 519L125 779L0 779Z" fill="#85a434"></path><path d="M0 1261L125 1261L125 701L250 701L250 1161L375 1161L375 1021L500 1021L500 1201L625 1201L625 1081L750 1081L750 861L875 861L875 1041L1000 1041L1000 1121L1125 1121L1125 1181L1250 1181L1250 961L1375 961L1375 1081L1500 1081L1500 1081L1625 1081L1625 661L1750 661L1750 901L1875 901L1875 1001L2000 1001L2000 1141L2000 779L2000 579L1875 579L1875 779L1750 779L1750 579L1625 579L1625 779L1500 779L1500 779L1375 779L1375 619L1250 619L1250 779L1125 779L1125 919L1000 919L1000 699L875 699L875 759L750 759L750 699L625 699L625 739L500 739L500 759L375 759L375 759L250 759L250 539L125 539L125 899L0 899Z" fill="#7d9c2c"></path><path d="M0 1681L125 1681L125 1201L250 1201L250 1381L375 1381L375 1601L500 1601L500 1661L625 1661L625 1321L750 1321L750 1421L875 1421L875 1381L1000 1381L1000 1401L1125 1401L1125 1601L1250 1601L1250 1501L1375 1501L1375 1481L1500 1481L1500 1441L1625 1441L1625 1081L1750 1081L1750 1261L1875 1261L1875 1401L2000 1401L2000 1261L2000 1139L2000 999L1875 999L1875 899L1750 899L1750 659L1625 659L1625 1079L1500 1079L1500 1079L1375 1079L1375 959L1250 959L1250 1179L1125 1179L1125 1119L1000 1119L1000 1039L875 1039L875 859L750 859L750 1079L625 1079L625 1199L500 1199L500 1019L375 1019L375 1159L250 1159L250 699L125 699L125 1259L0 1259Z" fill="#749423"></path><path d="M0 1841L125 1841L125 1541L250 1541L250 1421L375 1421L375 1841L500 1841L500 1721L625 1721L625 1581L750 1581L750 1681L875 1681L875 1461L1000 1461L1000 1581L1125 1581L1125 1801L1250 1801L1250 1661L1375 1661L1375 1781L1500 1781L1500 1641L1625 1641L1625 1361L1750 1361L1750 1321L1875 1321L1875 1681L2000 1681L2000 1441L2000 1259L2000 1399L1875 1399L1875 1259L1750 1259L1750 1079L1625 1079L1625 1439L1500 1439L1500 1479L1375 1479L1375 1499L1250 1499L1250 1599L1125 1599L1125 1399L1000 1399L1000 1379L875 1379L875 1419L750 1419L750 1319L625 1319L625 1659L500 1659L500 1599L375 1599L375 1379L250 1379L250 1199L125 1199L125 1679L0 1679Z" fill="#6c8c19"></path><path d="M0 1981L125 1981L125 1961L250 1961L250 1901L375 1901L375 1981L500 1981L500 1961L625 1961L625 1961L750 1961L750 1981L875 1981L875 1901L1000 1901L1000 1901L1125 1901L1125 1981L1250 1981L1250 1981L1375 1981L1375 1981L1500 1981L1500 1881L1625 1881L1625 1961L1750 1961L1750 1901L1875 1901L1875 1901L2000 1901L2000 1901L2000 1439L2000 1679L1875 1679L1875 1319L1750 1319L1750 1359L1625 1359L1625 1639L1500 1639L1500 1779L1375 1779L1375 1659L1250 1659L1250 1799L1125 1799L1125 1579L1000 1579L1000 1459L875 1459L875 1679L750 1679L750 1579L625 1579L625 1719L500 1719L500 1839L375 1839L375 1419L250 1419L250 1539L125 1539L125 1839L0 1839Z" fill="#64840f"></path><path d="M0 2001L125 2001L125 2001L250 2001L250 2001L375 2001L375 2001L500 2001L500 2001L625 2001L625 2001L750 2001L750 2001L875 2001L875 2001L1000 2001L1000 2001L1125 2001L1125 2001L1250 2001L1250 2001L1375 2001L1375 2001L1500 2001L1500 2001L1625 2001L1625 2001L1750 2001L1750 2001L1875 2001L1875 2001L2000 2001L2000 2001L2000 1899L2000 1899L1875 1899L1875 1899L1750 1899L1750 1959L1625 1959L1625 1879L1500 1879L1500 1979L1375 1979L1375 1979L1250 1979L1250 1979L1125 1979L1125 1899L1000 1899L1000 1899L875 1899L875 1979L750 1979L750 1959L625 1959L625 1959L500 1959L500 1979L375 1979L375 1899L250 1899L250 1959L125 1959L125 1979L0 1979Z" fill="#5c7c01"></path></svg>