<svg id="visual" viewBox="0 0 2000 2000" width="2000" height="2000" xmlns="http://www.w3.org/2000/svg" xmlns:xlink="http://www.w3.org/1999/xlink" version="1.1"><path d="M0 81L105 81L105 61L211 61L211 101L316 101L316 81L421 81L421 41L526 41L526 81L632 81L632 141L737 141L737 141L842 141L842 101L947 101L947 61L1053 61L1053 81L1158 81L1158 161L1263 161L1263 41L1368 41L1368 41L1474 41L1474 161L1579 161L1579 141L1684 141L1684 121L1789 121L1789 101L1895 101L1895 161L2000 161L2000 161L2000 0L2000 0L1895 0L1895 0L1789 0L1789 0L1684 0L1684 0L1579 0L1579 0L1474 0L1474 0L1368 0L1368 0L1263 0L1263 0L1158 0L1158 0L1053 0L1053 0L947 0L947 0L842 0L842 0L737 0L737 0L632 0L632 0L526 0L526 0L421 0L421 0L316 0L316 0L211 0L211 0L105 0L105 0L0 0Z" fill="#646464"></path><path d="M0 121L105 121L105 241L211 241L211 201L316 201L316 181L421 181L421 181L526 181L526 241L632 241L632 261L737 261L737 261L842 261L842 201L947 201L947 101L1053 101L1053 181L1158 181L1158 321L1263 321L1263 161L1368 161L1368 181L1474 181L1474 221L1579 221L1579 241L1684 241L1684 181L1789 181L1789 241L1895 241L1895 301L2000 301L2000 221L2000 159L2000 159L1895 159L1895 99L1789 99L1789 119L1684 119L1684 139L1579 139L1579 159L1474 159L1474 39L1368 39L1368 39L1263 39L1263 159L1158 159L1158 79L1053 79L1053 59L947 59L947 99L842 99L842 139L737 139L737 139L632 139L632 79L526 79L526 39L421 39L421 79L316 79L316 99L211 99L211 59L105 59L105 79L0 79Z" fill="#5d5a63"></path><path d="M0 381L105 381L105 621L211 621L211 341L316 341L316 301L421 301L421 381L526 381L526 441L632 441L632 521L737 521L737 401L842 401L842 481L947 481L947 561L1053 561L1053 281L1158 281L1158 581L1263 581L1263 301L1368 301L1368 361L1474 361L1474 421L1579 421L1579 481L1684 481L1684 381L1789 381L1789 561L1895 561L1895 621L2000 621L2000 621L2000 219L2000 299L1895 299L1895 239L1789 239L1789 179L1684 179L1684 239L1579 239L1579 219L1474 219L1474 179L1368 179L1368 159L1263 159L1263 319L1158 319L1158 179L1053 179L1053 99L947 99L947 199L842 199L842 259L737 259L737 259L632 259L632 239L526 239L526 179L421 179L421 179L316 179L316 199L211 199L211 239L105 239L105 119L0 119Z" fill="#565162"></path><path d="M0 1121L105 1121L105 1001L211 1001L211 821L316 821L316 921L421 921L421 601L526 601L526 1001L632 1001L632 1101L737 1101L737 601L842 601L842 681L947 681L947 1241L1053 1241L1053 721L1158 721L1158 821L1263 821L1263 1101L1368 1101L1368 981L1474 981L1474 861L1579 861L1579 1121L1684 1121L1684 781L1789 781L1789 901L1895 901L1895 1061L2000 1061L2000 1101L2000 619L2000 619L1895 619L1895 559L1789 559L1789 379L1684 379L1684 479L1579 479L1579 419L1474 419L1474 359L1368 359L1368 299L1263 299L1263 579L1158 579L1158 279L1053 279L1053 559L947 559L947 479L842 479L842 399L737 399L737 519L632 519L632 439L526 439L526 379L421 379L421 299L316 299L316 339L211 339L211 619L105 619L105 379L0 379Z" fill="#4f4860"></path><path d="M0 1341L105 1341L105 1521L211 1521L211 1161L316 1161L316 1141L421 1141L421 1161L526 1161L526 1261L632 1261L632 1501L737 1501L737 1401L842 1401L842 1401L947 1401L947 1481L1053 1481L1053 1121L1158 1121L1158 1361L1263 1361L1263 1401L1368 1401L1368 1221L1474 1221L1474 1261L1579 1261L1579 1361L1684 1361L1684 1501L1789 1501L1789 1301L1895 1301L1895 1461L2000 1461L2000 1381L2000 1099L2000 1059L1895 1059L1895 899L1789 899L1789 779L1684 779L1684 1119L1579 1119L1579 859L1474 859L1474 979L1368 979L1368 1099L1263 1099L1263 819L1158 819L1158 719L1053 719L1053 1239L947 1239L947 679L842 679L842 599L737 599L737 1099L632 1099L632 999L526 999L526 599L421 599L421 919L316 919L316 819L211 819L211 999L105 999L105 1119L0 1119Z" fill="#483f5f"></path><path d="M0 1381L105 1381L105 1621L211 1621L211 1221L316 1221L316 1281L421 1281L421 1301L526 1301L526 1301L632 1301L632 1541L737 1541L737 1481L842 1481L842 1461L947 1461L947 1561L1053 1561L1053 1261L1158 1261L1158 1441L1263 1441L1263 1481L1368 1481L1368 1281L1474 1281L1474 1341L1579 1341L1579 1461L1684 1461L1684 1561L1789 1561L1789 1441L1895 1441L1895 1521L2000 1521L2000 1441L2000 1379L2000 1459L1895 1459L1895 1299L1789 1299L1789 1499L1684 1499L1684 1359L1579 1359L1579 1259L1474 1259L1474 1219L1368 1219L1368 1399L1263 1399L1263 1359L1158 1359L1158 1119L1053 1119L1053 1479L947 1479L947 1399L842 1399L842 1399L737 1399L737 1499L632 1499L632 1259L526 1259L526 1159L421 1159L421 1139L316 1139L316 1159L211 1159L211 1519L105 1519L105 1339L0 1339Z" fill="#40365d"></path><path d="M0 1521L105 1521L105 1681L211 1681L211 1381L316 1381L316 1401L421 1401L421 1401L526 1401L526 1461L632 1461L632 1641L737 1641L737 1541L842 1541L842 1601L947 1601L947 1681L1053 1681L1053 1421L1158 1421L1158 1521L1263 1521L1263 1561L1368 1561L1368 1341L1474 1341L1474 1381L1579 1381L1579 1561L1684 1561L1684 1661L1789 1661L1789 1541L1895 1541L1895 1641L2000 1641L2000 1581L2000 1439L2000 1519L1895 1519L1895 1439L1789 1439L1789 1559L1684 1559L1684 1459L1579 1459L1579 1339L1474 1339L1474 1279L1368 1279L1368 1479L1263 1479L1263 1439L1158 1439L1158 1259L1053 1259L1053 1559L947 1559L947 1459L842 1459L842 1479L737 1479L737 1539L632 1539L632 1299L526 1299L526 1299L421 1299L421 1279L316 1279L316 1219L211 1219L211 1619L105 1619L105 1379L0 1379Z" fill="#382d5c"></path><path d="M0 1741L105 1741L105 1861L211 1861L211 1581L316 1581L316 1501L421 1501L421 1501L526 1501L526 1521L632 1521L632 1781L737 1781L737 1661L842 1661L842 1821L947 1821L947 1741L1053 1741L1053 1561L1158 1561L1158 1661L1263 1661L1263 1681L1368 1681L1368 1581L1474 1581L1474 1581L1579 1581L1579 1661L1684 1661L1684 1781L1789 1781L1789 1601L1895 1601L1895 1701L2000 1701L2000 1681L2000 1579L2000 1639L1895 1639L1895 1539L1789 1539L1789 1659L1684 1659L1684 1559L1579 1559L1579 1379L1474 1379L1474 1339L1368 1339L1368 1559L1263 1559L1263 1519L1158 1519L1158 1419L1053 1419L1053 1679L947 1679L947 1599L842 1599L842 1539L737 1539L737 1639L632 1639L632 1459L526 1459L526 1399L421 1399L421 1399L316 1399L316 1379L211 1379L211 1679L105 1679L105 1519L0 1519Z" fill="#2f245a"></path><path d="M0 1921L105 1921L105 1941L211 1941L211 1901L316 1901L316 1801L421 1801L421 1781L526 1781L526 1721L632 1721L632 1881L737 1881L737 1821L842 1821L842 1921L947 1921L947 1901L1053 1901L1053 1781L1158 1781L1158 1761L1263 1761L1263 1881L1368 1881L1368 1821L1474 1821L1474 1841L1579 1841L1579 1921L1684 1921L1684 1921L1789 1921L1789 1761L1895 1761L1895 1821L2000 1821L2000 1841L2000 1679L2000 1699L1895 1699L1895 1599L1789 1599L1789 1779L1684 1779L1684 1659L1579 1659L1579 1579L1474 1579L1474 1579L1368 1579L1368 1679L1263 1679L1263 1659L1158 1659L1158 1559L1053 1559L1053 1739L947 1739L947 1819L842 1819L842 1659L737 1659L737 1779L632 1779L632 1519L526 1519L526 1499L421 1499L421 1499L316 1499L316 1579L211 1579L211 1859L105 1859L105 1739L0 1739Z" fill="#241b59"></path><path d="M0 2001L105 2001L105 2001L211 2001L211 2001L316 2001L316 2001L421 2001L421 2001L526 2001L526 2001L632 2001L632 2001L737 2001L737 2001L842 2001L842 2001L947 2001L947 2001L1053 2001L1053 2001L1158 2001L1158 2001L1263 2001L1263 2001L1368 2001L1368 2001L1474 2001L1474 2001L1579 2001L1579 2001L1684 2001L1684 2001L1789 2001L1789 2001L1895 2001L1895 2001L2000 2001L2000 2001L2000 1839L2000 1819L1895 1819L1895 1759L1789 1759L1789 1919L1684 1919L1684 1919L1579 1919L1579 1839L1474 1839L1474 1819L1368 1819L1368 1879L1263 1879L1263 1759L1158 1759L1158 1779L1053 1779L1053 1899L947 1899L947 1919L842 1919L842 1819L737 1819L737 1879L632 1879L632 1719L526 1719L526 1779L421 1779L421 1799L316 1799L316 1899L211 1899L211 1939L105 1939L105 1919L0 1919Z" fill="#171357"></path></svg>