<svg id="visual" viewBox="0 0 2000 2000" width="2000" height="2000" xmlns="http://www.w3.org/2000/svg" xmlns:xlink="http://www.w3.org/1999/xlink" version="1.1"><path d="M0 41L105 41L105 141L211 141L211 121L316 121L316 61L421 61L421 161L526 161L526 81L632 81L632 61L737 61L737 61L842 61L842 141L947 141L947 41L1053 41L1053 121L1158 121L1158 81L1263 81L1263 61L1368 61L1368 141L1474 141L1474 41L1579 41L1579 121L1684 121L1684 141L1789 141L1789 141L1895 141L1895 141L2000 141L2000 101L2000 0L2000 0L1895 0L1895 0L1789 0L1789 0L1684 0L1684 0L1579 0L1579 0L1474 0L1474 0L1368 0L1368 0L1263 0L1263 0L1158 0L1158 0L1053 0L1053 0L947 0L947 0L842 0L842 0L737 0L737 0L632 0L632 0L526 0L526 0L421 0L421 0L316 0L316 0L211 0L211 0L105 0L105 0L0 0Z" fill="#5168b0"></path><path d="M0 221L105 221L105 281L211 281L211 381L316 381L316 261L421 261L421 421L526 421L526 441L632 441L632 201L737 201L737 481L842 481L842 401L947 401L947 401L1053 401L1053 321L1158 321L1158 421L1263 421L1263 341L1368 341L1368 421L1474 421L1474 261L1579 261L1579 521L1684 521L1684 361L1789 361L1789 281L1895 281L1895 361L2000 361L2000 461L2000 99L2000 139L1895 139L1895 139L1789 139L1789 139L1684 139L1684 119L1579 119L1579 39L1474 39L1474 139L1368 139L1368 59L1263 59L1263 79L1158 79L1158 119L1053 119L1053 39L947 39L947 139L842 139L842 59L737 59L737 59L632 59L632 79L526 79L526 159L421 159L421 59L316 59L316 119L211 119L211 139L105 139L105 39L0 39Z" fill="#257dc0"></path><path d="M0 361L105 361L105 521L211 521L211 541L316 541L316 441L421 441L421 481L526 481L526 581L632 581L632 421L737 421L737 661L842 661L842 601L947 601L947 501L1053 501L1053 421L1158 421L1158 621L1263 621L1263 561L1368 561L1368 701L1474 701L1474 521L1579 521L1579 701L1684 701L1684 541L1789 541L1789 461L1895 461L1895 561L2000 561L2000 541L2000 459L2000 359L1895 359L1895 279L1789 279L1789 359L1684 359L1684 519L1579 519L1579 259L1474 259L1474 419L1368 419L1368 339L1263 339L1263 419L1158 419L1158 319L1053 319L1053 399L947 399L947 399L842 399L842 479L737 479L737 199L632 199L632 439L526 439L526 419L421 419L421 259L316 259L316 379L211 379L211 279L105 279L105 219L0 219Z" fill="#0091c7"></path><path d="M0 1101L105 1101L105 921L211 921L211 781L316 781L316 1141L421 1141L421 981L526 981L526 841L632 841L632 881L737 881L737 1161L842 1161L842 1061L947 1061L947 901L1053 901L1053 1001L1158 1001L1158 841L1263 841L1263 921L1368 921L1368 1341L1474 1341L1474 1041L1579 1041L1579 961L1684 961L1684 1101L1789 1101L1789 921L1895 921L1895 1121L2000 1121L2000 781L2000 539L2000 559L1895 559L1895 459L1789 459L1789 539L1684 539L1684 699L1579 699L1579 519L1474 519L1474 699L1368 699L1368 559L1263 559L1263 619L1158 619L1158 419L1053 419L1053 499L947 499L947 599L842 599L842 659L737 659L737 419L632 419L632 579L526 579L526 479L421 479L421 439L316 439L316 539L211 539L211 519L105 519L105 359L0 359Z" fill="#00a3c6"></path><path d="M0 1241L105 1241L105 1081L211 1081L211 861L316 861L316 1301L421 1301L421 1181L526 1181L526 1001L632 1001L632 1081L737 1081L737 1221L842 1221L842 1281L947 1281L947 1001L1053 1001L1053 1121L1158 1121L1158 1081L1263 1081L1263 1101L1368 1101L1368 1441L1474 1441L1474 1141L1579 1141L1579 1141L1684 1141L1684 1261L1789 1261L1789 1141L1895 1141L1895 1181L2000 1181L2000 961L2000 779L2000 1119L1895 1119L1895 919L1789 919L1789 1099L1684 1099L1684 959L1579 959L1579 1039L1474 1039L1474 1339L1368 1339L1368 919L1263 919L1263 839L1158 839L1158 999L1053 999L1053 899L947 899L947 1059L842 1059L842 1159L737 1159L737 879L632 879L632 839L526 839L526 979L421 979L421 1139L316 1139L316 779L211 779L211 919L105 919L105 1099L0 1099Z" fill="#00b3c0"></path><path d="M0 1341L105 1341L105 1121L211 1121L211 941L316 941L316 1361L421 1361L421 1361L526 1361L526 1181L632 1181L632 1161L737 1161L737 1261L842 1261L842 1401L947 1401L947 1121L1053 1121L1053 1261L1158 1261L1158 1161L1263 1161L1263 1281L1368 1281L1368 1541L1474 1541L1474 1221L1579 1221L1579 1261L1684 1261L1684 1341L1789 1341L1789 1261L1895 1261L1895 1321L2000 1321L2000 1121L2000 959L2000 1179L1895 1179L1895 1139L1789 1139L1789 1259L1684 1259L1684 1139L1579 1139L1579 1139L1474 1139L1474 1439L1368 1439L1368 1099L1263 1099L1263 1079L1158 1079L1158 1119L1053 1119L1053 999L947 999L947 1279L842 1279L842 1219L737 1219L737 1079L632 1079L632 999L526 999L526 1179L421 1179L421 1299L316 1299L316 859L211 859L211 1079L105 1079L105 1239L0 1239Z" fill="#40c2b7"></path><path d="M0 1501L105 1501L105 1281L211 1281L211 1121L316 1121L316 1461L421 1461L421 1501L526 1501L526 1241L632 1241L632 1361L737 1361L737 1361L842 1361L842 1501L947 1501L947 1321L1053 1321L1053 1361L1158 1361L1158 1221L1263 1221L1263 1401L1368 1401L1368 1581L1474 1581L1474 1321L1579 1321L1579 1401L1684 1401L1684 1461L1789 1461L1789 1301L1895 1301L1895 1501L2000 1501L2000 1301L2000 1119L2000 1319L1895 1319L1895 1259L1789 1259L1789 1339L1684 1339L1684 1259L1579 1259L1579 1219L1474 1219L1474 1539L1368 1539L1368 1279L1263 1279L1263 1159L1158 1159L1158 1259L1053 1259L1053 1119L947 1119L947 1399L842 1399L842 1259L737 1259L737 1159L632 1159L632 1179L526 1179L526 1359L421 1359L421 1359L316 1359L316 939L211 939L211 1119L105 1119L105 1339L0 1339Z" fill="#71cfae"></path><path d="M0 1701L105 1701L105 1621L211 1621L211 1621L316 1621L316 1781L421 1781L421 1861L526 1861L526 1761L632 1761L632 1601L737 1601L737 1861L842 1861L842 1721L947 1721L947 1721L1053 1721L1053 1801L1158 1801L1158 1781L1263 1781L1263 1821L1368 1821L1368 1761L1474 1761L1474 1881L1579 1881L1579 1801L1684 1801L1684 1641L1789 1641L1789 1661L1895 1661L1895 1641L2000 1641L2000 1761L2000 1299L2000 1499L1895 1499L1895 1299L1789 1299L1789 1459L1684 1459L1684 1399L1579 1399L1579 1319L1474 1319L1474 1579L1368 1579L1368 1399L1263 1399L1263 1219L1158 1219L1158 1359L1053 1359L1053 1319L947 1319L947 1499L842 1499L842 1359L737 1359L737 1359L632 1359L632 1239L526 1239L526 1499L421 1499L421 1459L316 1459L316 1119L211 1119L211 1279L105 1279L105 1499L0 1499Z" fill="#9ddba7"></path><path d="M0 1921L105 1921L105 1901L211 1901L211 1921L316 1921L316 1961L421 1961L421 1961L526 1961L526 1961L632 1961L632 1861L737 1861L737 1961L842 1961L842 1881L947 1881L947 1861L1053 1861L1053 1921L1158 1921L1158 1961L1263 1961L1263 1901L1368 1901L1368 1881L1474 1881L1474 1961L1579 1961L1579 1861L1684 1861L1684 1861L1789 1861L1789 1941L1895 1941L1895 1881L2000 1881L2000 1941L2000 1759L2000 1639L1895 1639L1895 1659L1789 1659L1789 1639L1684 1639L1684 1799L1579 1799L1579 1879L1474 1879L1474 1759L1368 1759L1368 1819L1263 1819L1263 1779L1158 1779L1158 1799L1053 1799L1053 1719L947 1719L947 1719L842 1719L842 1859L737 1859L737 1599L632 1599L632 1759L526 1759L526 1859L421 1859L421 1779L316 1779L316 1619L211 1619L211 1619L105 1619L105 1699L0 1699Z" fill="#c6e5a6"></path><path d="M0 2001L105 2001L105 2001L211 2001L211 2001L316 2001L316 2001L421 2001L421 2001L526 2001L526 2001L632 2001L632 2001L737 2001L737 2001L842 2001L842 2001L947 2001L947 2001L1053 2001L1053 2001L1158 2001L1158 2001L1263 2001L1263 2001L1368 2001L1368 2001L1474 2001L1474 2001L1579 2001L1579 2001L1684 2001L1684 2001L1789 2001L1789 2001L1895 2001L1895 2001L2000 2001L2000 2001L2000 1939L2000 1879L1895 1879L1895 1939L1789 1939L1789 1859L1684 1859L1684 1859L1579 1859L1579 1959L1474 1959L1474 1879L1368 1879L1368 1899L1263 1899L1263 1959L1158 1959L1158 1919L1053 1919L1053 1859L947 1859L947 1879L842 1879L842 1959L737 1959L737 1859L632 1859L632 1959L526 1959L526 1959L421 1959L421 1959L316 1959L316 1919L211 1919L211 1899L105 1899L105 1919L0 1919Z" fill="#eeeeac"></path></svg>